<?xml version="1.0" encoding="UTF-8" standalone="no"?><!DOCTYPE svg PUBLIC "-//W3C//DTD SVG 1.1//EN" "http://www.w3.org/Graphics/SVG/1.1/DTD/svg11.dtd"><svg width="100%" height="100%" viewBox="0 0 400 300" version="1.1" xmlns="http://www.w3.org/2000/svg" xmlns:xlink="http://www.w3.org/1999/xlink" xml:space="preserve" xmlns:serif="http://www.serif.com/" style="fill-rule:evenodd;clip-rule:evenodd;stroke-linejoin:round;stroke-miterlimit:2;"><g><g><g><path d="M162.195,110.571c-5.92,-0.189 -18.241,0.328 -28.846,6.679l-14.37,29.398c34.805,2.269 45.516,-10.042 46.647,-32.369c0.1,-1.976 -1.453,-3.645 -3.431,-3.708Z" style="fill:#e34b4c;fill-rule:nonzero;"/><path d="M237.805,110.571c5.919,-0.189 18.24,0.328 28.845,6.679l14.371,29.398c-34.806,2.269 -45.516,-10.042 -46.647,-32.369c-0.1,-1.976 1.452,-3.645 3.431,-3.708Z" style="fill:#e34b4c;fill-rule:nonzero;"/><path d="M139.243,185.026c-0.045,-0.029 -0.09,-0.059 -0.135,-0.088c-11.347,-7.531 -20.696,-19.066 -24.496,-32.217c-1.212,-4.193 -1.316,-8.558 -1.012,-12.879c0.216,-3.079 2.888,-5.401 5.968,-5.184c2.798,0.196 4.97,2.42 5.181,5.135c1.012,12.965 11.092,23.217 22.076,29.069c4.749,2.53 8.15,7.172 5.48,12.655c-2.344,4.812 -8.655,6.318 -13.062,3.509Z" style="fill:#e34b4c;fill-rule:nonzero;"/><path d="M260.756,185.026c0.046,-0.029 0.09,-0.059 0.135,-0.088c11.348,-7.531 20.697,-19.066 24.496,-32.217c1.212,-4.193 1.317,-8.558 1.013,-12.879c-0.216,-3.079 -2.888,-5.401 -5.968,-5.184c-2.798,0.196 -4.97,2.42 -5.182,5.135c-1.011,12.965 -11.091,23.217 -22.076,29.069c-4.748,2.53 -8.149,7.172 -5.479,12.655c2.344,4.812 8.654,6.318 13.061,3.509Z" style="fill:#e34b4c;fill-rule:nonzero;"/><path d="M197.24,226.421c-7.506,3.769 -14.963,7.744 -21.599,12.935c-4.68,3.661 -9.011,7.933 -11.07,13.629c-1.787,4.94 -0.081,10.1 2.054,14.614c0.739,1.563 0.071,3.429 -1.492,4.168c-1.271,0.601 -2.744,0.268 -3.647,-0.716c-5.878,-6.405 -8.71,-15.156 -6.166,-23.68c2.083,-6.976 6.662,-12.911 11.938,-17.803c7.165,-6.645 15.912,-11.868 25.083,-15.221c3.38,-1.236 7.121,0.502 8.357,3.882c1.188,3.252 -0.458,6.686 -3.458,8.192Z" style="fill:#fd6f71;fill-rule:nonzero;"/><path d="M169.305,221.797c-6.333,1.741 -12.638,3.627 -18.702,6.17c-5.756,2.412 -11.445,5.336 -15.844,9.856c-4.868,5.364 -5.23,11.59 -3.54,18.361c0.419,1.677 -0.601,3.376 -2.279,3.795c-1.364,0.341 -2.744,-0.275 -3.436,-1.418c-4.546,-7.501 -5.614,-16.491 -1.41,-24.426c4.457,-8.413 12.626,-14.249 21.033,-18.292c6.857,-3.297 14.212,-5.681 21.737,-6.845c3.556,-0.55 6.885,1.887 7.435,5.443c0.529,3.42 -1.758,6.466 -4.994,7.356Z" style="fill:#fd6f71;fill-rule:nonzero;"/><path d="M155.859,207.493c-6.013,0.111 -12.032,0.335 -18.001,1.108c-5.869,0.76 -11.981,1.883 -17.284,4.636c-7.283,3.524 -10.096,10.072 -10.141,17.874c-0.011,1.792 -1.258,3.365 -3.151,3.353c-1.406,-0.008 -2.59,-0.947 -2.978,-2.226c-3.4,-11.229 0.608,-22.175 10.237,-28.86c11.793,-8.151 28.155,-10.254 42.129,-8.89c3.582,0.35 6.201,3.536 5.852,7.118c-0.325,3.326 -3.097,5.823 -6.36,5.882c-0.101,0.001 -0.202,0.003 -0.303,0.005Z" style="fill:#fd6f71;fill-rule:nonzero;"/><path d="M202.759,226.421c7.506,3.769 14.964,7.744 21.6,12.935c4.68,3.661 9.011,7.933 11.07,13.629c1.786,4.94 0.081,10.1 -2.054,14.614c-0.739,1.563 -0.071,3.429 1.492,4.168c1.271,0.601 2.744,0.268 3.646,-0.716c5.878,-6.405 8.711,-15.156 6.166,-23.68c-2.083,-6.976 -6.662,-12.911 -11.937,-17.803c-7.165,-6.645 -15.913,-11.868 -25.084,-15.221c-3.379,-1.236 -7.12,0.502 -8.356,3.882c-1.189,3.252 0.457,6.686 3.457,8.192Z" style="fill:#fd6f71;fill-rule:nonzero;"/><path d="M230.695,221.797c6.333,1.741 12.637,3.627 18.701,6.17c5.757,2.412 11.446,5.336 15.845,9.856c4.868,5.364 5.23,11.59 3.539,18.361c-0.418,1.677 0.602,3.376 2.279,3.795c1.365,0.341 2.745,-0.275 3.437,-1.418c4.545,-7.501 5.614,-16.491 1.409,-24.426c-4.457,-8.413 -12.625,-14.249 -21.032,-18.292c-6.857,-3.297 -14.213,-5.681 -21.737,-6.845c-3.556,-0.55 -6.885,1.887 -7.435,5.443c-0.53,3.42 1.758,6.466 4.994,7.356Z" style="fill:#fd6f71;fill-rule:nonzero;"/><path d="M244.141,207.493c6.012,0.111 12.032,0.335 18.001,1.108c5.869,0.76 11.98,1.883 17.283,4.636c7.284,3.524 10.096,10.072 10.142,17.874c0.01,1.792 1.258,3.365 3.151,3.353c1.406,-0.008 2.59,-0.947 2.977,-2.226c3.401,-11.229 -0.608,-22.175 -10.236,-28.86c-11.794,-8.151 -28.155,-10.254 -42.13,-8.89c-3.581,0.35 -6.201,3.536 -5.851,7.118c0.324,3.326 3.097,5.823 6.359,5.882c0.102,0.001 0.203,0.003 0.304,0.005Z" style="fill:#fd6f71;fill-rule:nonzero;"/><path d="M279.552,199.956c-10.999,-5.307 -24.457,-6.617 -36.223,-5.468c-3.581,0.349 -6.201,3.536 -5.851,7.117c0.324,3.327 3.097,5.824 6.359,5.882c0.102,0.002 0.203,0.004 0.304,0.006c6.012,0.111 12.032,0.335 18.001,1.108c3.934,0.509 7.976,1.185 11.812,2.402c2.95,-4.762 4.704,-8.748 5.598,-11.047Z" style="fill:#e34b4c;fill-rule:nonzero;"/><path d="M254.873,215.843c-6.857,-3.298 -14.213,-5.682 -21.737,-6.846c-3.557,-0.55 -6.885,1.887 -7.435,5.443c-0.53,3.421 1.758,6.467 4.994,7.357c6.333,1.741 12.637,3.627 18.701,6.17c2.26,0.946 4.508,1.975 6.672,3.144c2.954,-2.344 5.524,-4.728 7.728,-7.023c0.587,-0.611 1.149,-1.222 1.699,-1.832c-3.3,-2.526 -6.938,-4.642 -10.622,-6.413Z" style="fill:#e34b4c;fill-rule:nonzero;"/><path d="M232.742,229.568c-7.165,-6.645 -15.912,-11.868 -25.083,-15.221c-3.38,-1.236 -7.121,0.502 -8.357,3.882c-1.189,3.252 0.457,6.686 3.457,8.192c7.506,3.769 14.963,7.743 21.6,12.935c2.109,1.65 4.145,3.426 5.936,5.399c4.067,-1.299 7.812,-2.823 11.249,-4.502c-2.334,-3.988 -5.423,-7.552 -8.802,-10.685Z" style="fill:#e34b4c;fill-rule:nonzero;"/><path d="M200.697,218.229c-1.235,-3.379 -4.977,-5.117 -8.356,-3.882c-9.171,3.353 -17.919,8.577 -25.084,15.221c-3.378,3.133 -6.468,6.697 -8.803,10.686c3.438,1.678 7.183,3.202 11.249,4.501c1.792,-1.972 3.827,-3.749 5.937,-5.399c6.636,-5.191 14.094,-9.166 21.599,-12.935c3.001,-1.506 4.647,-4.94 3.458,-8.192Z" style="fill:#e34b4c;fill-rule:nonzero;"/><path d="M166.864,208.997c-7.524,1.164 -14.88,3.548 -21.737,6.846c-3.684,1.771 -7.322,3.887 -10.622,6.413c0.55,0.61 1.113,1.221 1.699,1.832c2.204,2.295 4.775,4.679 7.728,7.023c2.165,-1.17 4.413,-2.198 6.672,-3.145c6.064,-2.542 12.369,-4.428 18.701,-6.169c3.237,-0.89 5.524,-3.936 4.995,-7.357c-0.551,-3.555 -3.88,-5.993 -7.436,-5.443Z" style="fill:#e34b4c;fill-rule:nonzero;"/><path d="M156.67,194.488c-11.766,-1.149 -25.223,0.161 -36.222,5.468c0.893,2.299 2.647,6.285 5.598,11.047c3.835,-1.217 7.877,-1.893 11.812,-2.402c5.968,-0.773 11.988,-0.997 18.001,-1.108c0.101,-0.002 0.202,-0.004 0.303,-0.006c3.263,-0.058 6.035,-2.555 6.36,-5.882c0.349,-3.581 -2.27,-6.768 -5.852,-7.117Z" style="fill:#e34b4c;fill-rule:nonzero;"/><path d="M200,237.521c55.452,-0 69.095,-43.096 69.095,-43.096c-0,-0 0.44,-51.21 -69.095,-51.21c-69.535,0 -69.095,51.21 -69.095,51.21c-0,-0 13.643,43.096 69.095,43.096Z" style="fill:#fd6f71;fill-rule:nonzero;"/><path d="M148.806,81.681c-9.69,-0.059 -31.272,2.528 -41.759,25.272c-13.768,29.859 9.919,52.425 27.994,31.719c17.047,-19.527 1.219,-33.727 15.696,-53.121c1.19,-1.594 0.059,-3.857 -1.931,-3.87Z" style="fill:#fd6f71;fill-rule:nonzero;"/><path d="M251.193,81.681c9.691,-0.059 31.273,2.528 41.759,25.272c13.768,29.859 -9.918,52.425 -27.994,31.719c-17.046,-19.527 -1.219,-33.727 -15.695,-53.121c-1.19,-1.594 -0.059,-3.857 1.93,-3.87Z" style="fill:#fd6f71;fill-rule:nonzero;"/></g><g><path d="M171.515,161.714c-1.618,-0 -2.93,1.312 -2.93,2.93l0,5.155c0,1.618 1.312,2.929 2.93,2.929c1.618,0 2.93,-1.311 2.93,-2.929l-0,-5.155c-0,-1.618 -1.312,-2.93 -2.93,-2.93Z" style="fill-rule:nonzero;"/><path d="M228.482,172.728c1.618,0 2.929,-1.311 2.929,-2.929l0,-5.155c0,-1.618 -1.311,-2.93 -2.929,-2.93c-1.618,-0 -2.93,1.312 -2.93,2.93l-0,5.155c-0,1.618 1.312,2.929 2.93,2.929Z" style="fill-rule:nonzero;"/><path d="M208.957,167.235c-1.218,-1.065 -3.069,-0.941 -4.134,0.277c-1.172,1.34 -2.93,2.109 -4.825,2.109c-1.894,-0 -3.653,-0.769 -4.824,-2.109c-1.065,-1.218 -2.916,-1.343 -4.134,-0.278c-1.219,1.065 -1.343,2.916 -0.278,4.134c2.284,2.613 5.651,4.112 9.236,4.112c3.585,0 6.951,-1.499 9.236,-4.111c1.065,-1.219 0.941,-3.07 -0.277,-4.134Z" style="fill-rule:nonzero;"/></g></g><g transform="matrix(1,0,0,1,-256.416,-83.1957)"><g transform="matrix(72,0,0,72,267.88,158.846)"><path d="M0.67,-0.023c0.001,0.004 0.001,0.008 -0.001,0.011c-0.001,0.003 -0.003,0.006 -0.005,0.007c-0.004,0.003 -0.01,0.005 -0.017,0.005c-0.007,-0.001 -0.014,-0.001 -0.021,-0.001l-0.055,0c-0.011,0 -0.02,-0.001 -0.028,-0.002c-0.008,-0.001 -0.014,-0.004 -0.018,-0.011c-0.005,-0.009 -0.008,-0.019 -0.009,-0.032c-0.001,-0.013 -0.002,-0.025 -0.005,-0.036l-0.001,-0.014c-0.002,-0.008 -0.003,-0.017 -0.003,-0.025c0,-0.01 -0.001,-0.018 -0.002,-0.025c-0.001,-0.002 -0.001,-0.005 -0.001,-0.009c-0.001,-0.007 -0.002,-0.015 -0.003,-0.022c-0.001,-0.008 -0.003,-0.016 -0.005,-0.023c-0.005,-0.015 -0.012,-0.029 -0.019,-0.041c-0.007,-0.012 -0.018,-0.021 -0.031,-0.027c-0.003,-0.001 -0.007,-0.002 -0.01,-0.003c-0.003,-0.001 -0.007,-0.002 -0.011,-0.003c-0.012,-0.004 -0.026,-0.006 -0.041,-0.006l-0.129,0c-0.005,0.001 -0.01,0.002 -0.014,0.003c-0.004,0.001 -0.007,0.003 -0.01,0.006c-0.005,0.007 -0.008,0.017 -0.007,0.031c0.001,0.014 0.001,0.027 0.001,0.038l0,0.128l-0.001,0.033l0,0.015c0,0.004 -0.001,0.008 -0.002,0.011c-0.002,0.006 -0.006,0.01 -0.012,0.012c-0.003,0.001 -0.007,0.002 -0.012,0.002l-0.06,0c-0.011,0 -0.022,0 -0.034,0.001c-0.012,-0 -0.021,-0.002 -0.027,-0.007c-0.005,-0.003 -0.008,-0.009 -0.008,-0.018l0,-0.635c0,-0.007 -0,-0.015 -0,-0.023c-0.001,-0.008 0.001,-0.014 0.004,-0.019c0.003,-0.004 0.008,-0.007 0.015,-0.01c0.001,-0.001 0.003,-0.001 0.005,-0c0.001,-0 0.003,-0 0.004,-0.001l0.34,0c0.011,0 0.021,0 0.031,0.001c0.009,-0 0.018,0.001 0.027,0.003c0.003,0.001 0.007,0.002 0.011,0.002c0.003,0 0.007,0.001 0.01,0.002c0.005,0.001 0.009,0.003 0.014,0.004c0.005,0.001 0.009,0.003 0.014,0.005c0.017,0.007 0.032,0.016 0.046,0.027c0.014,0.011 0.026,0.023 0.035,0.037c0.003,0.003 0.005,0.007 0.006,0.01c0.002,0.004 0.004,0.008 0.007,0.011c0.005,0.009 0.009,0.019 0.012,0.029c0.003,0.01 0.006,0.021 0.009,0.033c0.001,0.003 0.001,0.005 0,0.008c0,0.003 0.001,0.005 0.002,0.008l0,0.009c0.001,0.005 0.002,0.012 0.001,0.019c-0.001,0.008 -0.002,0.014 -0.003,0.019c-0.001,0.005 -0.002,0.01 -0.002,0.014c0,0.005 -0.001,0.009 -0.002,0.014c-0.003,0.01 -0.007,0.019 -0.01,0.028c-0.003,0.009 -0.008,0.018 -0.013,0.026l-0.01,0.013c-0.002,0.003 -0.004,0.005 -0.006,0.008c-0.003,0.003 -0.005,0.005 -0.008,0.007c-0.004,0.003 -0.008,0.007 -0.012,0.01c-0.004,0.003 -0.008,0.007 -0.013,0.01c-0.003,0.002 -0.005,0.004 -0.008,0.006c-0.003,0.003 -0.005,0.006 -0.006,0.009c-0.001,0.004 -0.001,0.007 0.002,0.01c0.003,0.003 0.005,0.005 0.007,0.006c0.007,0.005 0.013,0.011 0.02,0.016c0.007,0.005 0.012,0.012 0.017,0.019c0.008,0.011 0.014,0.023 0.019,0.035c0.005,0.012 0.009,0.026 0.013,0.041c0.001,0.006 0.002,0.012 0.002,0.019c0.001,0.007 0.002,0.013 0.003,0.019l0.001,0.023c0.001,0.003 0.001,0.005 0,0.008c0,0.003 0,0.007 0.001,0.01c0.001,0.003 0.001,0.005 0,0.008c0,0.003 0,0.006 0.001,0.009c0.001,0.007 0.002,0.014 0.002,0.021c0,0.007 0.001,0.014 0.002,0.021l0.003,0.018c0.001,0.006 0.003,0.012 0.004,0.018c0.001,0.006 0.003,0.012 0.004,0.017Zm-0.165,-0.451c0.001,-0.007 0.001,-0.016 0,-0.027c-0.001,-0.011 -0.002,-0.019 -0.003,-0.024c-0.001,-0.003 -0.002,-0.005 -0.002,-0.007c0,-0.002 -0.001,-0.004 -0.002,-0.006c-0.008,-0.021 -0.023,-0.036 -0.044,-0.045c-0.011,-0.005 -0.024,-0.008 -0.039,-0.009c-0.015,-0.001 -0.03,-0.001 -0.046,-0.001l-0.116,-0c-0.001,0.001 -0.003,0.002 -0.004,0.001c-0.001,0 -0.003,-0 -0.004,-0c-0.008,0.002 -0.013,0.005 -0.016,0.01c-0.003,0.005 -0.005,0.012 -0.005,0.02c0.001,0.009 0.001,0.017 0.001,0.025l-0,0.117c-0,0.008 0.002,0.014 0.005,0.019c0.003,0.004 0.007,0.007 0.013,0.008c0.006,0.001 0.013,0.002 0.02,0.003c0.007,0.001 0.015,0.001 0.023,0c0.008,0 0.015,-0 0.021,-0l0.059,-0c0.005,-0 0.01,0 0.015,0c0.005,0.001 0.01,0 0.014,-0.001l0.013,-0c0.005,-0.001 0.01,-0.002 0.015,-0.002c0.005,-0 0.01,-0.001 0.015,-0.002c0.011,-0.003 0.021,-0.008 0.03,-0.013c0.009,-0.005 0.016,-0.012 0.022,-0.021c0.004,-0.006 0.007,-0.013 0.009,-0.02c0.002,-0.007 0.004,-0.016 0.006,-0.025Z" style="fill:#e34b4c;fill-rule:nonzero;"/></g><g transform="matrix(72,0,0,72,319.864,158.846)"><path d="M0.093,-0.714l0.085,0c0.007,0 0.015,0 0.022,0.001c0.007,0.001 0.012,0.003 0.015,0.007c0.003,0.005 0.005,0.012 0.006,0.02c-0,0.009 0,0.017 0,0.026l0,0.342c0,0.003 -0,0.005 -0,0.008c-0.001,0.003 -0.001,0.006 0,0.009l0,0.016c0,0.006 -0,0.012 -0,0.019c-0.001,0.007 -0,0.013 0.001,0.018c0,0.005 0,0.008 0.001,0.011c0.001,0.007 0.003,0.015 0.004,0.022c0.001,0.007 0.002,0.015 0.005,0.022c0.007,0.017 0.017,0.032 0.029,0.043c0.011,0.011 0.027,0.02 0.046,0.027l0.032,0.006c0.003,0.001 0.006,0.002 0.009,0.001c0.003,0 0.006,0 0.009,0.001c0.003,0.001 0.007,0.001 0.013,0c0.006,0 0.01,-0 0.012,-0.001l0.015,-0c0.005,-0.001 0.011,-0.002 0.016,-0.003c0.005,-0.001 0.01,-0.002 0.015,-0.003c0.009,-0.002 0.017,-0.004 0.022,-0.007c0.012,-0.005 0.022,-0.013 0.031,-0.022c0.009,-0.009 0.017,-0.019 0.022,-0.03c0.007,-0.017 0.012,-0.038 0.013,-0.062c0.001,-0.023 0.002,-0.048 0.002,-0.073l-0,-0.333c-0,-0.009 -0,-0.02 -0.001,-0.031c0,-0.011 0.002,-0.02 0.006,-0.025c0.003,-0.004 0.008,-0.007 0.014,-0.008c0.006,-0.001 0.013,-0.001 0.02,-0.001l0.064,-0c0.005,-0 0.01,-0 0.015,-0.001c0.005,0 0.01,0.001 0.015,0.002c0.009,0.002 0.015,0.005 0.018,0.01c0.003,0.005 0.005,0.013 0.004,0.022c0,0.01 -0,0.019 -0,0.027l-0,0.336c-0,0.025 -0,0.05 -0.001,0.074c-0.001,0.024 -0.004,0.046 -0.009,0.065c-0.009,0.031 -0.021,0.058 -0.036,0.081c-0.014,0.023 -0.033,0.043 -0.056,0.059c-0.021,0.015 -0.045,0.027 -0.073,0.036c-0.006,0.002 -0.012,0.004 -0.019,0.005c-0.006,0.001 -0.012,0.003 -0.018,0.004c-0.004,0.001 -0.008,0.002 -0.012,0.002c-0.003,-0 -0.007,0.001 -0.011,0.002c-0.008,0.001 -0.017,0.002 -0.027,0.003c-0.01,0.001 -0.02,0.001 -0.029,0.001c-0.063,0.001 -0.117,-0.007 -0.162,-0.024c-0.045,-0.016 -0.08,-0.042 -0.105,-0.079c-0.009,-0.012 -0.016,-0.025 -0.022,-0.038c-0.005,-0.013 -0.01,-0.027 -0.015,-0.042c-0.001,-0.003 -0.002,-0.006 -0.002,-0.009c-0,-0.002 -0.001,-0.005 -0.002,-0.008c-0.005,-0.019 -0.008,-0.04 -0.008,-0.063l-0,-0.439c-0,-0.006 0.001,-0.011 0.003,-0.015c0.004,-0.005 0.009,-0.008 0.016,-0.01l0.004,-0c0.001,-0 0.003,-0 0.004,-0.001Z" style="fill:#e34b4c;fill-rule:nonzero;"/></g><g transform="matrix(72,0,0,72,373.216,158.846)"><path d="M0.304,-0.728c0.129,-0.002 0.218,0.036 0.267,0.115c0.007,0.011 0.012,0.022 0.016,0.033c0.003,0.011 0.007,0.024 0.01,0.037c0.001,0.005 0.002,0.011 0.002,0.018c-0.001,0.007 -0.002,0.013 -0.005,0.016c-0.003,0.004 -0.008,0.006 -0.014,0.007c-0.006,0.001 -0.013,0.002 -0.02,0.002l-0.081,-0c-0.006,-0 -0.011,-0.001 -0.015,-0.002c-0.008,-0.003 -0.013,-0.009 -0.015,-0.016c-0.002,-0.007 -0.005,-0.015 -0.008,-0.022c-0.003,-0.007 -0.006,-0.014 -0.011,-0.021c-0.005,-0.007 -0.01,-0.013 -0.015,-0.017c-0.009,-0.007 -0.018,-0.012 -0.027,-0.017c-0.008,-0.003 -0.018,-0.006 -0.029,-0.009c-0.012,-0.002 -0.024,-0.003 -0.036,-0.004c-0.013,-0.001 -0.025,-0 -0.037,0.001c-0.012,0.001 -0.023,0.004 -0.032,0.008c-0.015,0.007 -0.027,0.014 -0.035,0.023c-0.009,0.009 -0.015,0.023 -0.018,0.041c-0.001,0.005 -0.002,0.01 -0.001,0.015c0.001,0.006 0.002,0.011 0.003,0.014c0.005,0.014 0.013,0.024 0.023,0.029c0.009,0.006 0.021,0.012 0.034,0.017c0.007,0.003 0.015,0.006 0.023,0.007c0.007,0.002 0.015,0.004 0.023,0.007c0.018,0.006 0.037,0.011 0.056,0.015c0.019,0.005 0.037,0.01 0.056,0.015c0.003,0.001 0.007,0.002 0.01,0.002c0.003,-0 0.007,0.001 0.01,0.002c0.013,0.005 0.027,0.009 0.042,0.013c0.014,0.004 0.027,0.01 0.038,0.017c0.018,0.011 0.034,0.023 0.047,0.034c0.013,0.011 0.025,0.026 0.036,0.044c0.003,0.005 0.006,0.011 0.009,0.018c0.002,0.007 0.004,0.013 0.007,0.02c0.001,0.002 0.001,0.004 0.001,0.005c0,0.002 0,0.004 0.001,0.005c0.003,0.011 0.004,0.024 0.004,0.04c0.001,0.003 0.001,0.007 0,0.01l0,0.018c-0.001,0.007 -0.002,0.014 -0.003,0.021c-0.001,0.007 -0.003,0.013 -0.005,0.02c-0.004,0.012 -0.008,0.023 -0.013,0.033c-0.005,0.01 -0.01,0.02 -0.017,0.029c-0.003,0.003 -0.005,0.006 -0.008,0.008c-0.003,0.003 -0.005,0.006 -0.007,0.009c-0.003,0.004 -0.007,0.008 -0.011,0.011c-0.004,0.004 -0.008,0.008 -0.013,0.011c-0.003,0.003 -0.007,0.005 -0.01,0.008c-0.004,0.003 -0.008,0.005 -0.012,0.008c-0.011,0.007 -0.023,0.013 -0.035,0.018c-0.013,0.005 -0.026,0.009 -0.039,0.014c-0.009,0.003 -0.019,0.005 -0.029,0.006c-0.01,0.001 -0.02,0.003 -0.03,0.005c-0.005,0.001 -0.009,0.002 -0.013,0.001c-0.005,0 -0.009,0.001 -0.013,0.002l-0.008,-0c-0.001,-0 -0.003,-0 -0.005,-0.001c-0.003,0 -0.005,0 -0.006,0.001c-0.003,0.001 -0.009,0.001 -0.017,0.001c-0.008,-0 -0.014,-0 -0.017,-0.001l-0.01,-0c-0.005,-0.001 -0.009,-0.002 -0.014,-0.002c-0.005,0.001 -0.01,0 -0.014,-0.001c-0.003,-0 -0.006,-0 -0.009,-0.001c-0.003,0 -0.006,-0 -0.009,-0.001c-0.008,-0.002 -0.016,-0.004 -0.025,-0.005c-0.009,-0.001 -0.017,-0.003 -0.024,-0.006c-0.033,-0.011 -0.061,-0.024 -0.086,-0.041c-0.025,-0.016 -0.045,-0.037 -0.062,-0.064c-0.011,-0.016 -0.019,-0.035 -0.025,-0.057c-0.001,-0.004 -0.002,-0.008 -0.002,-0.012c-0.001,-0.004 -0.002,-0.008 -0.003,-0.013c-0.001,-0.005 -0.002,-0.012 -0.003,-0.02c-0.001,-0.007 0.001,-0.013 0.004,-0.017c0.003,-0.005 0.008,-0.009 0.015,-0.01c0.006,-0.001 0.013,-0.001 0.021,-0.001l0.08,-0c0.006,-0 0.011,0.001 0.016,0.003c0.007,0.003 0.012,0.009 0.013,0.016c0.001,0.008 0.004,0.016 0.007,0.024c0.003,0.008 0.006,0.015 0.01,0.022c0.004,0.007 0.008,0.013 0.013,0.019c0.003,0.004 0.007,0.008 0.011,0.011c0.004,0.003 0.008,0.006 0.012,0.009c0.015,0.009 0.033,0.017 0.054,0.023c0.005,0.001 0.009,0.002 0.014,0.002c0.004,-0 0.009,0.001 0.014,0.002l0.005,-0c0.005,0.001 0.013,0.002 0.022,0.002c0.009,-0 0.017,-0.001 0.022,-0.002c0.002,-0.001 0.005,-0.001 0.01,-0.001c0.003,-0.001 0.007,-0.001 0.011,-0.002c0.003,0 0.007,-0.001 0.01,-0.002c0.023,-0.006 0.041,-0.014 0.054,-0.024c0.013,-0.01 0.023,-0.027 0.028,-0.05c0.001,-0.005 0.002,-0.01 0.001,-0.016c-0.002,-0.006 -0.003,-0.011 -0.004,-0.014c-0.007,-0.018 -0.018,-0.032 -0.034,-0.042c-0.002,-0.001 -0.006,-0.003 -0.011,-0.006c-0.01,-0.006 -0.021,-0.011 -0.033,-0.015c-0.013,-0.003 -0.025,-0.007 -0.037,-0.011c-0.005,-0.001 -0.009,-0.003 -0.013,-0.004c-0.005,-0.001 -0.01,-0.002 -0.015,-0.003c-0.011,-0.003 -0.021,-0.006 -0.032,-0.009c-0.011,-0.002 -0.022,-0.005 -0.032,-0.008c-0.003,-0.001 -0.006,-0.002 -0.008,-0.002c-0.002,-0 -0.004,-0.001 -0.007,-0.002l-0.029,-0.008c-0.015,-0.005 -0.03,-0.011 -0.044,-0.017c-0.014,-0.005 -0.027,-0.012 -0.039,-0.019c-0.015,-0.01 -0.029,-0.022 -0.042,-0.035c-0.013,-0.013 -0.023,-0.029 -0.03,-0.046c-0.003,-0.006 -0.005,-0.012 -0.006,-0.019c-0.001,-0.006 -0.003,-0.013 -0.005,-0.02c-0.001,-0.006 -0.002,-0.015 -0.003,-0.026c-0.001,-0.011 -0,-0.021 0.001,-0.028c0.001,-0.003 0.001,-0.007 0.001,-0.012c0.002,-0.007 0.004,-0.014 0.005,-0.021c0.001,-0.007 0.003,-0.013 0.006,-0.02c0.01,-0.023 0.023,-0.043 0.039,-0.059c0.015,-0.017 0.033,-0.032 0.054,-0.045c0.013,-0.008 0.028,-0.014 0.043,-0.019c0.015,-0.005 0.032,-0.009 0.049,-0.013c0.007,-0.001 0.013,-0.002 0.02,-0.002c0.006,-0.001 0.012,-0.002 0.019,-0.003c0.002,-0.001 0.005,-0.001 0.01,0c0.004,0.001 0.007,0 0.008,-0.001Z" style="fill:#e34b4c;fill-rule:nonzero;"/></g><g transform="matrix(72,0,0,72,419.944,158.846)"><path d="M0.036,-0.713l0.507,0c0.009,0 0.017,0 0.025,0c0.009,0.001 0.016,0.003 0.021,0.006c0.002,0.001 0.003,0.003 0.004,0.006c0.001,0.003 0.002,0.007 0.003,0.01l-0,0.005c0.001,0.003 0.001,0.006 0.001,0.009l-0,0.049c-0,0.005 0,0.009 0,0.013c0.001,0.005 0,0.009 -0.001,0.013c-0.003,0.011 -0.01,0.017 -0.02,0.018c-0.01,0.001 -0.022,0.001 -0.036,0.001l-0.102,-0c-0.013,-0 -0.025,0 -0.035,0.001c-0.009,0.001 -0.016,0.008 -0.019,0.019c-0.001,0.003 -0.001,0.006 0,0.009c0.001,0.003 0,0.006 -0.001,0.009c-0.001,0.004 -0.001,0.008 -0.001,0.013c0.001,0.005 0.001,0.01 0.001,0.014l0,0.471c0,0.011 -0.001,0.02 -0.002,0.027c-0.001,0.008 -0.005,0.014 -0.012,0.017c-0.005,0.001 -0.01,0.002 -0.016,0.002l-0.085,-0c-0.007,-0 -0.014,-0 -0.02,-0.001c-0.007,-0.001 -0.012,-0.003 -0.015,-0.007c-0.003,-0.005 -0.005,-0.012 -0.005,-0.021l0,-0.488c0,-0.005 0,-0.01 0.001,-0.015c-0,-0.005 -0.001,-0.009 -0.002,-0.013c-0.001,-0.003 -0.001,-0.006 0,-0.009c0.001,-0.003 0,-0.005 -0.001,-0.008c-0.003,-0.011 -0.01,-0.018 -0.02,-0.019c-0.011,-0.001 -0.023,-0.001 -0.037,-0.001l-0.093,-0c-0.007,-0 -0.015,0 -0.024,0c-0.009,0.001 -0.017,0 -0.022,-0.001c-0.005,-0.002 -0.009,-0.005 -0.012,-0.009c-0.002,-0.003 -0.003,-0.008 -0.003,-0.013c-0.001,-0.005 -0.001,-0.011 -0.001,-0.016l0,-0.049c0,-0.009 0.001,-0.016 0.002,-0.023c0.001,-0.007 0.004,-0.012 0.009,-0.015c0.002,-0.001 0.006,-0.003 0.011,-0.004Z" style="fill:#e34b4c;fill-rule:nonzero;"/></g><g transform="matrix(72,0,0,72,463.936,158.846)"><path d="M0.111,-0.711c0.005,0 0.01,-0 0.016,-0.001c0.006,0 0.012,0 0.017,0c0.006,0.001 0.011,0.002 0.016,0.003c0.005,0.001 0.008,0.003 0.01,0.006c0.004,0.005 0.006,0.011 0.006,0.019c0.001,0.009 0.001,0.017 0.001,0.026l-0,0.627c-0,0.01 -0.002,0.018 -0.005,0.023c-0.003,0.003 -0.006,0.005 -0.01,0.006c-0.003,0.001 -0.008,0.002 -0.013,0.003l-0.019,-0c-0.009,-0 -0.018,-0 -0.026,-0.001c-0.008,-0.001 -0.014,-0.004 -0.017,-0.01c-0.003,-0.004 -0.004,-0.01 -0.004,-0.017l-0,-0.627c-0,-0.007 -0,-0.016 -0.001,-0.025c0,-0.009 0.002,-0.016 0.005,-0.021c0.003,-0.005 0.008,-0.008 0.016,-0.01c0.001,-0.001 0.003,-0.001 0.004,-0.001c0.001,0.001 0.003,0.001 0.004,0Z" style="fill:#fd6f71;fill-rule:nonzero;"/></g><g transform="matrix(72,0,0,72,482.584,158.846)"><path d="M0.368,-0.729c0.065,-0.001 0.12,0.009 0.164,0.031c0.045,0.023 0.079,0.054 0.104,0.093c0.007,0.011 0.012,0.021 0.016,0.03c0.005,0.01 0.009,0.022 0.013,0.035c0.001,0.003 0.003,0.008 0.004,0.013c0.001,0.006 0.001,0.011 -0.001,0.016c-0.001,0.004 -0.004,0.006 -0.008,0.007c-0.003,0.001 -0.007,0.003 -0.011,0.004l-0.01,-0c-0.002,0.001 -0.005,0.001 -0.008,0.001l-0.008,-0c-0.009,-0 -0.018,-0.001 -0.025,-0.002c-0.008,-0.001 -0.014,-0.004 -0.017,-0.009c-0.005,-0.007 -0.008,-0.014 -0.011,-0.023c-0.003,-0.009 -0.006,-0.017 -0.011,-0.024c-0.009,-0.015 -0.018,-0.027 -0.029,-0.038c-0.011,-0.011 -0.024,-0.021 -0.039,-0.03c-0.008,-0.005 -0.017,-0.009 -0.026,-0.012c-0.01,-0.003 -0.02,-0.005 -0.03,-0.008c-0.007,-0.002 -0.016,-0.003 -0.025,-0.004c-0.009,-0.001 -0.019,-0.002 -0.029,-0.002c-0.011,0 -0.021,0.001 -0.03,0.002c-0.01,0.001 -0.018,0.002 -0.025,0.004c-0.007,0.001 -0.013,0.003 -0.019,0.004c-0.006,0.001 -0.012,0.003 -0.018,0.006c-0.056,0.023 -0.096,0.063 -0.121,0.12c-0.005,0.009 -0.008,0.019 -0.011,0.03c-0.003,0.01 -0.007,0.02 -0.01,0.031c-0.001,0.004 -0.002,0.008 -0.002,0.012c0,0.005 -0.001,0.009 -0.002,0.013c-0.001,0.003 -0.001,0.005 -0.001,0.007c0,0.002 -0,0.004 -0.001,0.007c-0.001,0.007 -0.002,0.015 -0.002,0.022c-0.001,0.008 -0.001,0.016 -0.001,0.024c0,0.005 -0,0.009 -0,0.014c-0.001,0.005 -0.001,0.01 0,0.014l0,0.01c0.001,0.005 0.002,0.009 0.002,0.014c-0.001,0.005 -0,0.009 0.001,0.014c0.001,0.004 0.002,0.008 0.002,0.012c-0.001,0.004 -0,0.008 0.001,0.011c0.002,0.009 0.004,0.017 0.006,0.025c0.001,0.009 0.003,0.017 0.006,0.025c0.011,0.033 0.026,0.062 0.044,0.085c0.018,0.024 0.042,0.044 0.071,0.059c0.009,0.005 0.019,0.008 0.029,0.011c0.009,0.003 0.02,0.006 0.031,0.009c0.005,0.001 0.009,0.002 0.013,0.001c0.004,0 0.009,0.001 0.014,0.002c0.003,0.001 0.009,0.001 0.018,0.001c0.009,0.001 0.015,0 0.019,-0.001l0.007,-0c0.003,-0.001 0.005,-0.001 0.008,-0.001c0.003,0.001 0.005,0 0.008,-0.001c0.007,-0.001 0.013,-0.003 0.02,-0.004c0.006,-0.001 0.012,-0.002 0.018,-0.005c0.052,-0.021 0.089,-0.056 0.11,-0.105c0.005,-0.012 0.01,-0.026 0.015,-0.043c0.001,-0.006 0.003,-0.012 0.004,-0.019c0.001,-0.006 0.003,-0.012 0.006,-0.017c0.003,-0.005 0.009,-0.008 0.016,-0.009c0.007,-0.001 0.015,-0.001 0.024,-0.001l0.01,-0c0.003,-0 0.006,0 0.009,0.001l0.007,-0c0.002,0.001 0.004,0.001 0.006,0.001c0.003,0.001 0.005,0.002 0.006,0.003c0.005,0.003 0.007,0.007 0.008,0.014c0.001,0.007 0,0.014 -0.002,0.021c-0.004,0.015 -0.008,0.03 -0.011,0.044c-0.003,0.014 -0.008,0.027 -0.015,0.04c-0.005,0.009 -0.01,0.017 -0.015,0.025c-0.004,0.008 -0.009,0.016 -0.014,0.024c-0.012,0.017 -0.027,0.033 -0.044,0.047c-0.018,0.015 -0.037,0.027 -0.058,0.036c-0.007,0.003 -0.014,0.006 -0.021,0.008c-0.007,0.002 -0.015,0.004 -0.022,0.007c-0.007,0.003 -0.015,0.004 -0.022,0.005c-0.008,0.001 -0.016,0.003 -0.024,0.004c-0.003,0.001 -0.006,0.002 -0.009,0.001c-0.003,0 -0.005,0 -0.008,0.001l-0.025,0.002c-0.002,0.001 -0.006,0.001 -0.013,0c-0.007,0 -0.012,-0 -0.014,-0.001c-0.003,-0.001 -0.006,-0.001 -0.009,-0.001c-0.003,0.001 -0.007,0.001 -0.01,-0l-0.01,-0c-0.005,-0.001 -0.01,-0.002 -0.015,-0.003c-0.005,0 -0.01,-0.001 -0.015,-0.002c-0.006,-0.001 -0.012,-0.003 -0.018,-0.004c-0.006,-0.001 -0.012,-0.002 -0.017,-0.004c-0.014,-0.004 -0.027,-0.009 -0.038,-0.015c-0.042,-0.018 -0.076,-0.044 -0.102,-0.077c-0.026,-0.033 -0.047,-0.073 -0.062,-0.118c-0.003,-0.008 -0.005,-0.016 -0.006,-0.025c-0.002,-0.009 -0.004,-0.018 -0.006,-0.027c-0.001,-0.003 -0.002,-0.006 -0.001,-0.009c-0,-0.003 -0,-0.006 -0.001,-0.009c-0.001,-0.006 -0.002,-0.012 -0.002,-0.019c-0.001,-0.007 -0.002,-0.013 -0.003,-0.019l0,-0.019c-0.001,-0.003 -0.002,-0.009 -0.002,-0.017c0,-0.008 0.001,-0.014 0.002,-0.017c0.001,-0.002 0.001,-0.004 0,-0.007c-0.001,-0.002 -0.001,-0.004 0,-0.005l0,-0.009c0.001,-0.005 0.001,-0.011 0.002,-0.017c-0,-0.005 0.001,-0.011 0.002,-0.016c0.001,-0.004 0.002,-0.008 0.002,-0.013c0,-0.004 0.001,-0.008 0.002,-0.013c0.003,-0.011 0.006,-0.022 0.008,-0.033c0.002,-0.011 0.005,-0.021 0.009,-0.03c0.003,-0.009 0.007,-0.017 0.011,-0.026c0.003,-0.009 0.007,-0.018 0.012,-0.025c0.01,-0.017 0.02,-0.033 0.03,-0.047c0.002,-0.003 0.005,-0.006 0.008,-0.008c0.003,-0.003 0.005,-0.006 0.007,-0.009c0.004,-0.005 0.008,-0.01 0.013,-0.014c0.004,-0.004 0.008,-0.008 0.013,-0.012c0.004,-0.003 0.008,-0.006 0.012,-0.009c0.003,-0.003 0.007,-0.007 0.012,-0.01c0.01,-0.007 0.021,-0.014 0.032,-0.019c0.011,-0.005 0.022,-0.011 0.034,-0.016c0.007,-0.003 0.015,-0.006 0.024,-0.007c0.008,-0.002 0.016,-0.004 0.024,-0.007c0.005,-0.001 0.009,-0.001 0.013,-0.002c0.004,-0.001 0.008,-0.001 0.012,-0.002l0.031,-0.003c0.001,-0.001 0.003,-0.001 0.005,0c0.002,0.001 0.004,0.001 0.005,0Z" style="fill:#fd6f71;fill-rule:nonzero;"/></g><g transform="matrix(72,0,0,72,534.568,158.846)"><path d="M0.111,-0.711c0.005,0 0.01,-0 0.016,-0.001c0.006,0 0.012,0 0.017,0c0.006,0.001 0.011,0.002 0.016,0.003c0.005,0.001 0.008,0.003 0.01,0.006c0.004,0.005 0.006,0.011 0.006,0.019c0.001,0.009 0.001,0.017 0.001,0.026l-0,0.627c-0,0.01 -0.002,0.018 -0.005,0.023c-0.003,0.003 -0.006,0.005 -0.01,0.006c-0.003,0.001 -0.008,0.002 -0.013,0.003l-0.019,-0c-0.009,-0 -0.018,-0 -0.026,-0.001c-0.008,-0.001 -0.014,-0.004 -0.017,-0.01c-0.003,-0.004 -0.004,-0.01 -0.004,-0.017l-0,-0.627c-0,-0.007 -0,-0.016 -0.001,-0.025c0,-0.009 0.002,-0.016 0.005,-0.021c0.003,-0.005 0.008,-0.008 0.016,-0.01c0.001,-0.001 0.003,-0.001 0.004,-0.001c0.001,0.001 0.003,0.001 0.004,0Z" style="fill:#fd6f71;fill-rule:nonzero;"/></g><g transform="matrix(72,0,0,72,553.216,158.846)"><path d="M0.031,-0.714l0.514,0c0.007,0 0.012,0.001 0.017,0.004c0.005,0.003 0.008,0.008 0.009,0.013c0.001,0.006 0.002,0.013 0.002,0.022l-0,0.012c-0.001,0.005 -0.003,0.01 -0.004,0.013c-0.001,0.003 -0.003,0.006 -0.006,0.009c-0.005,0.003 -0.013,0.005 -0.022,0.005l-0.141,-0c-0.007,-0 -0.015,-0 -0.022,-0.001c-0.007,0 -0.013,0 -0.019,0.001c-0.005,0.001 -0.01,0.003 -0.014,0.006c-0.004,0.003 -0.007,0.008 -0.009,0.014c-0.002,0.006 -0.003,0.014 -0.002,0.023c0.001,0.009 0.001,0.018 0.001,0.025l0,0.519c0,0.01 -0,0.019 -0.001,0.027c-0.001,0.008 -0.005,0.014 -0.012,0.017c-0.003,0.001 -0.007,0.002 -0.012,0.002c-0.005,0.001 -0.01,0.001 -0.015,0.001l-0.027,-0c-0.01,-0 -0.017,-0.002 -0.02,-0.007c-0.004,-0.005 -0.006,-0.012 -0.006,-0.019c-0.001,-0.007 -0.001,-0.015 -0.001,-0.024l0,-0.517c0,-0.007 0,-0.016 0.001,-0.026c-0,-0.009 -0.001,-0.017 -0.003,-0.023c-0.003,-0.011 -0.011,-0.016 -0.022,-0.017c-0.012,-0.001 -0.025,-0.001 -0.038,-0.001l-0.11,-0c-0.008,-0 -0.017,0 -0.027,0c-0.011,0.001 -0.019,-0 -0.024,-0.002c-0.002,-0.001 -0.004,-0.003 -0.006,-0.004c-0.002,-0.001 -0.004,-0.003 -0.005,-0.005c-0.002,-0.003 -0.003,-0.007 -0.004,-0.013c-0.001,-0.006 -0.001,-0.012 -0,-0.018c-0,-0.006 0.001,-0.012 0.002,-0.017c0.001,-0.005 0.003,-0.009 0.005,-0.011c0.001,-0.002 0.003,-0.004 0.006,-0.005c0.002,-0.001 0.004,-0.001 0.007,-0.002c0.001,-0.001 0.003,-0.001 0.004,-0.001c0.001,0.001 0.003,0.001 0.004,0Z" style="fill:#fd6f71;fill-rule:nonzero;"/></g><g transform="matrix(72,0,0,72,594.544,158.846)"><path d="M0.04,-0.713c0.01,0 0.022,-0 0.037,-0.001c0.015,-0.001 0.026,0.001 0.033,0.004c0.005,0.003 0.009,0.006 0.012,0.01c0.004,0.004 0.007,0.008 0.01,0.013c0.004,0.007 0.008,0.013 0.012,0.02c0.004,0.007 0.008,0.013 0.013,0.02c0.019,0.029 0.037,0.058 0.055,0.087c0.019,0.029 0.037,0.058 0.055,0.087c0.007,0.011 0.013,0.021 0.019,0.031c0.007,0.01 0.013,0.02 0.02,0.03c0.003,0.005 0.005,0.009 0.008,0.013c0.003,0.005 0.008,0.008 0.013,0.009c0.005,0.001 0.01,0 0.013,-0.004c0.004,-0.003 0.007,-0.006 0.008,-0.009c0.007,-0.009 0.013,-0.019 0.018,-0.029c0.006,-0.01 0.012,-0.02 0.018,-0.029c0.018,-0.029 0.036,-0.057 0.053,-0.086c0.017,-0.029 0.035,-0.057 0.053,-0.085c0.005,-0.009 0.01,-0.017 0.015,-0.026c0.005,-0.008 0.011,-0.016 0.016,-0.024c0.003,-0.005 0.005,-0.009 0.008,-0.013c0.003,-0.004 0.006,-0.008 0.01,-0.011c0.006,-0.005 0.014,-0.007 0.025,-0.007l0.034,0c0.005,0 0.011,0 0.016,0c0.005,0.001 0.01,0.002 0.013,0.005c0.005,0.003 0.006,0.008 0.003,0.014c-0.002,0.007 -0.004,0.011 -0.006,0.014c-0.005,0.008 -0.01,0.016 -0.015,0.023c-0.005,0.008 -0.01,0.016 -0.015,0.023c-0.003,0.005 -0.006,0.009 -0.009,0.014c-0.003,0.005 -0.006,0.01 -0.009,0.015c-0.023,0.034 -0.046,0.068 -0.068,0.103c-0.022,0.035 -0.044,0.07 -0.066,0.105c-0.007,0.011 -0.014,0.021 -0.021,0.031c-0.007,0.011 -0.014,0.022 -0.021,0.033c-0.005,0.007 -0.009,0.014 -0.014,0.02c-0.004,0.007 -0.008,0.015 -0.011,0.024c-0.001,0.004 -0.002,0.008 -0.002,0.013l-0,0.199c-0,0.005 0,0.011 0.001,0.017c0.001,0.006 0,0.012 -0.001,0.017l-0,0.017c-0.002,0.012 -0.007,0.02 -0.014,0.023c-0.002,0.001 -0.004,0.002 -0.006,0.001c-0.002,0 -0.004,0 -0.007,0.001c-0.003,0.001 -0.006,0.001 -0.009,0c-0.003,0 -0.006,-0 -0.009,-0l-0.024,-0c-0.008,-0 -0.014,-0.002 -0.017,-0.007c-0.003,-0.003 -0.005,-0.007 -0.006,-0.014c-0.001,-0.006 -0.001,-0.013 -0.002,-0.02c0,-0.007 0,-0.014 0,-0.021c0.001,-0.007 0.001,-0.014 0.001,-0.02l-0,-0.178c-0,-0.003 -0,-0.005 -0.001,-0.008l-0,-0.013c-0.003,-0.011 -0.008,-0.021 -0.013,-0.029c-0.005,-0.007 -0.01,-0.015 -0.015,-0.024l-0.039,-0.06c-0.023,-0.034 -0.045,-0.068 -0.066,-0.102c-0.021,-0.033 -0.043,-0.067 -0.066,-0.101c-0.009,-0.013 -0.017,-0.026 -0.026,-0.039c-0.008,-0.012 -0.016,-0.025 -0.025,-0.038c-0.005,-0.006 -0.008,-0.012 -0.01,-0.019c-0.001,-0.005 -0.001,-0.008 0.001,-0.01c0.001,-0.003 0.002,-0.005 0.005,-0.006c0.003,-0.001 0.007,-0.002 0.01,-0.003c0.001,0 0.001,0 0.002,0c0.001,0.001 0.002,0.001 0.003,0Z" style="fill:#fd6f71;fill-rule:nonzero;"/></g></g></g></svg>